<svg xmlns="http://www.w3.org/2000/svg" viewBox="0 0 462.04 469.75">
<defs>
<style>.cls-1{fill:#fff;}.cls-2{fill:#6f6f6f;}.cls-3{fill:#87a2fb;}</style>
</defs>
<g id="레이어_2" data-name="레이어 2">
<g id="레이어_8" data-name="레이어 8">
<rect y="6.75" width="338" height="463" rx="12"/>
<rect class="cls-1" x="7" y="0.75" width="338" height="463" rx="12"/>
<path fill="current" d="M333,464.5H19A12.76,12.76,0,0,1,6.25,451.75v-439A12.76,12.76,0,0,1,19,0H333a12.76,12.76,0,0,1,12.75,12.75v439A12.76,12.76,0,0,1,333,464.5ZM19,1.5A11.27,11.27,0,0,0,7.75,12.75v439A11.27,11.27,0,0,0,19,463H333a11.27,11.27,0,0,0,11.25-11.25v-439A11.27,11.27,0,0,0,333,1.5Z"/>
<path class="cls-2" d="M54.53,55.79H37.12v-2.2h7.34V49.7H39V40.38H52.59V49.7H47.11v3.89h7.42ZM50,47.61v-5.1H41.59v5.1Z"/>
<path class="cls-2" d="M66.87,42.16H63.06c.12,2,1.57,4,4.54,4.83l-1.34,2.07a7.23,7.23,0,0,1-4.55-3.59A7.43,7.43,0,0,1,57,49.39L55.69,47.3c3-.87,4.5-3,4.63-5.14h-3.9V40H66.87ZM58.82,50.1h2.64v1.78H68.9V50.1h2.65v7.69H58.82ZM68.9,55.66V54H61.46v1.71Zm0-16.68h2.67V49.31H68.88Z"/>
<path class="cls-2" d="M96.48,55.89H79.06V53.65h7.32V50.23H80.51V48.14h2.55V42.7H80.42V40.57H95V42.7H92.34v5.44h2.59v2.09H89v3.42h7.45ZM89.7,48.14V42.7h-4v5.44Z"/>
<path class="cls-2" d="M109.71,51.86,108.27,54a8.67,8.67,0,0,1-4.64-5.15A9.33,9.33,0,0,1,99,54.43l-1.53-2.11c3.16-1.41,4.79-4.94,4.79-8.16V43h-4V40.82h10.75V43h-4v1.17A8.18,8.18,0,0,0,109.71,51.86ZM110.8,39h2.7V58h-2.7Z"/>
<path class="cls-2" d="M127.51,48.62,126,50.69a7.44,7.44,0,0,1-4.15-4.16,7.69,7.69,0,0,1-4.46,4.39L116,48.83a6.68,6.68,0,0,0,4.51-6.57V40.07h2.7v2.19A6.51,6.51,0,0,0,127.51,48.62Zm-8.07,3.13h2.69v3.79H132.5v2.13H119.44Zm6.75-6.6h3.26V43.62h-3.26V41.47h3.26V39h2.66V53.11h-2.66V47.3h-3.26Z"/>
<path class="cls-2" d="M49.53,103h-12v-1.17h12Zm-11-10.24h9.91v1.14h-2v4.39h2v1.12H38.55V98.31h2V93.92h-2Zm6.53,5.53V93.92H41.9v4.39Z"/>
<path class="cls-2" d="M62.51,100.09h-12V98.94H55.8V97.63H52V94.27H59.6V93H52V91.89h9v3.4H53.39v1.27h7.87v1.07H57.18v1.31h5.33Zm-10.47.8h1.4v2.57h7.84v1.13H52Z"/>
<path class="cls-2" d="M63.48,101.86h12V103h-12Zm10.68-2.23H65v-7h9v1.13H66.41v1.78h7.34v1.1H66.41v1.91h7.75Z"/>
<path class="cls-2" d="M82.6,95.21h1.22V91.75h1.31V101H83.82V96.37H82.59a2.93,2.93,0,0,1-3,2.6,3.23,3.23,0,1,1,3-3.76Zm-3,2.57a1.84,1.84,0,0,0,1.77-2,1.86,1.86,0,0,0-1.77-2.05,1.83,1.83,0,0,0-1.76,2.05A1.81,1.81,0,0,0,79.61,97.78ZM79,100.07h1.38v3.19h7.72v1.13H79Zm7.39-8.56H87.7v9.84H86.37Z"/>
<path class="cls-2" d="M89.48,101.77h12v1.16h-12Zm10.65-2.87H91V92.69h9v1.14H92.35v3.92h7.78Z"/>
<path fill="current" d="M65.05,162.25h3.27v-2.59H70v8H63.35v-8h1.7Zm3.27,3.95v-2.56H65.05v2.56Zm-2.76,3.51h11.5v5.8H75.29v-4.35H65.56Zm6.16-10.81h1.66v4h2V158.6h1.7v10.16h-1.7v-4.38h-2v4.27H71.72Z"/>
<path fill="current" d="M87.23,163.34H88.8v-4.46h1.69v11.85H88.8v-5.9H87.22a3.78,3.78,0,0,1-3.84,3.35,4.15,4.15,0,0,1,0-8.29A3.79,3.79,0,0,1,87.23,163.34Zm-3.85,3.31a2.64,2.64,0,0,0,0-5.23,2.64,2.64,0,0,0,0,5.23Zm-.81,2.95h1.78v4.09h9.93v1.46H82.57Zm9.52-11h1.7v12.66h-1.7Z"/>
<path fill="current" d="M96.09,171.79h15.49v1.49H96.09Zm13.71-3.71H98v-8h11.64v1.48H99.79v5h10Z"/>
<path class="cls-2" d="M38.33,240.11h6.3v1.16H39.74v6.38a32.4,32.4,0,0,0,5.94-.41l.15,1.16a34.12,34.12,0,0,1-6.41.44H38.33Zm10.05,12H47V238.89h1.39Z"/>
<path class="cls-2" d="M58.43,248.11l-.79,1.08a6.71,6.71,0,0,1-3.25-3.9,7.17,7.17,0,0,1-3.33,4.24l-.82-1.1a6.66,6.66,0,0,0,3.45-5.67v-1.39h-3v-1.16h7.21v1.16H55.07v1.39A6.21,6.21,0,0,0,58.43,248.11Zm.91-9.22h1.39v5.21h2.12v1.17H60.73V252H59.34Z"/>
<path class="cls-2" d="M67.35,239.87c2,0,3.39,1.8,3.39,4.61s-1.44,4.63-3.39,4.62-3.41-1.78-3.41-4.62S65.36,239.88,67.35,239.87Zm0,8c1.2,0,2-1.29,2-3.38s-.84-3.35-2-3.36-2.07,1.3-2.06,3.36S66.12,247.86,67.35,247.86Zm7,4.21H73V238.89h1.4Z"/>
<path class="cls-2" d="M77.19,240.34H78.6v7.4a30.32,30.32,0,0,0,5.56-.53l.18,1.15a29,29,0,0,1-6.1.54h-1Zm10.27,11.73H86.07v-7.79H82.15v-1.15h3.92v-4.24h1.39Z"/>
<path class="cls-2" d="M38,274.65h5v1.14H39.33V282a19.53,19.53,0,0,0,4.24-.38l.12,1.17a23.2,23.2,0,0,1-4.86.37H38Zm4.1,3.37h2.7v-4.67h1.32v12.22H44.76v-6.39h-2.7Zm6.73,8.21H47.44V273.08h1.35Z"/>
<path class="cls-2" d="M62.52,284.52h-12v-1.14h12ZM51.87,274h1.39v2.36h6.46V274H61.1v6.89H51.87Zm7.85,5.79v-2.33H53.26v2.33Z"/>
<path class="cls-2" d="M74.17,275.7c0,1.42-1.52,2.29-4,2.41v1.1h5.35v1.13h-12v-1.13h5.3v-1.1c-2.48-.13-4-1-4-2.41s1.8-2.43,4.69-2.43S74.16,274.14,74.17,275.7ZM65,281.06h1.38v1.32h6.22v-1.32H74v5H65Zm4.5-4c2,0,3.27-.5,3.26-1.35s-1.22-1.39-3.26-1.38-3.26.5-3.26,1.38S67.43,277.05,69.47,277.05Zm3.1,7.89v-1.47H66.35v1.47Z"/>
<path class="cls-2" d="M76.48,283.34h12v1.16h-12ZM88,279.56l-.64,1.16A7,7,0,0,1,82.44,277a7.14,7.14,0,0,1-4.9,3.68l-.62-1.16c2.5-.47,4.77-2.48,4.77-4.62v-1h1.47v1C83.16,277.08,85.44,279.11,88,279.56Z"/>
<path class="cls-2" d="M44.14,317.11H38v-8.54h6.15ZM42.76,316v-6.31h-3.4V316Zm3.58-8.72h1.4v5.15h2.11v1.18H47.74v6.82h-1.4Z"/>
<path class="cls-2" d="M55.83,312.38h1.86V307.6H59v12.17H57.69v-6.26H55.41a9.15,9.15,0,0,1-4.08,4.2l-.8-1a8.18,8.18,0,0,0,3.72-3.81l-3.53.36-.19-1.2,4.1-.25a9.18,9.18,0,0,0,.31-1.91H51.18v-1.14H56.3A12.45,12.45,0,0,1,55.83,312.38Zm4.64-5.12h1.32v13.15H60.47Z"/>
<path class="cls-2" d="M64.09,308.44h6.15v1.13H65.5v2.55h4.18v1.12H65.5v2.93A29.46,29.46,0,0,0,71,315.8l.15,1.13a36.15,36.15,0,0,1-6,.4h-1Zm10.36,12H73.07v-7.18H70.46v-1.14h2.61v-4.86h1.38Z"/>
<path class="cls-2" d="M43.1,344H38.26v-1.11h6.25c0,3.85-1.64,7.18-6.15,9.35l-.74-1.13C41.12,349.41,42.83,347,43.1,344Zm5.33,10.63H47V341.45h1.41Z"/>
<path class="cls-2" d="M54.16,348.78v-.84c-1.53-.16-2.49-.86-2.48-1.91,0-1.22,1.25-2,3.18-2s3.2.75,3.2,2c0,1.05-1,1.75-2.51,1.91v.79c1.17-.06,2.34-.15,3.44-.29l.1,1a53.08,53.08,0,0,1-8.35.51l-.19-1.09C51.63,348.83,52.87,348.83,54.16,348.78Zm4.59-5.16H51v-1h3.19v-1.22h1.39v1.22h3.2Zm-6.31,7.25h9v3.73H60V352H52.44ZM54.86,347c1.12,0,1.87-.37,1.87-1s-.75-1-1.87-1-1.85.36-1.86,1S53.73,347,54.86,347ZM60,341.48h1.39v8.81H60Z"/>
<path class="cls-2" d="M71.43,350.67l-.8,1.08a6.69,6.69,0,0,1-3.24-3.9,7.21,7.21,0,0,1-3.33,4.24l-.83-1.1a6.67,6.67,0,0,0,3.46-5.67v-1.39h-3v-1.16h7.21v1.16H68.06v1.39A6.24,6.24,0,0,0,71.43,350.67Zm.91-9.22h1.39v5.21h2.11v1.17H73.73v6.77H72.34Z"/>
<path class="cls-2" d="M133.51,98.1c0-3.45,1.46-5.46,3.91-5.46s3.9,2,3.9,5.46-1.44,5.46-3.9,5.46S133.51,101.58,133.51,98.1Zm3.91,4.07c1.43,0,2.29-1.42,2.29-4.07S138.84,94,137.42,94s-2.29,1.45-2.29,4.09S136,102.17,137.42,102.17Z"/>
<path class="cls-2" d="M147.32,105h-1.4l3.42-12.73h1.4Z"/>
<path class="cls-2" d="M155.5,100.64h1.64c.06.94,1,1.53,2.17,1.53s2.22-.7,2.22-1.73-.87-1.8-2.39-1.81h-.91V97.31h.91c1.21,0,2.05-.67,2.05-1.69A1.65,1.65,0,0,0,159.34,94a1.85,1.85,0,0,0-2.05,1.56h-1.56c0-1.73,1.65-2.91,3.63-2.91s3.4,1.32,3.39,2.9a2.33,2.33,0,0,1-1.88,2.36V98a2.45,2.45,0,0,1,2.29,2.53c0,1.77-1.63,3.06-3.83,3.06S155.56,102.38,155.5,100.64Z"/>
<path fill="current" d="M141.22,167.06c0-4.44,1.88-7,5-7s5,2.58,5,7-1.86,7-5,7S141.22,171.54,141.22,167.06Zm5,5.24c1.84,0,2.94-1.83,2.94-5.24s-1.11-5.26-2.94-5.27-2.95,1.87-2.95,5.27S144.4,172.3,146.25,172.3Z"/>
<path fill="current" d="M159,176h-1.8l4.41-16.38h1.79Z"/>
<path fill="current" d="M169.52,170.33h2.11c.08,1.2,1.27,2,2.8,2s2.85-.9,2.85-2.23-1.12-2.32-3.08-2.33H173V166h1.17c1.56,0,2.65-.86,2.65-2.17a2.13,2.13,0,0,0-2.38-2.1c-1.37,0-2.6.77-2.65,2h-2c.06-2.23,2.12-3.74,4.67-3.74s4.38,1.7,4.36,3.72a3,3,0,0,1-2.42,3v.09a3.16,3.16,0,0,1,2.95,3.25c0,2.28-2.1,4-4.93,4S169.6,172.57,169.52,170.33Z"/>
<path class="cls-2" d="M133.51,245.48c0-3.46,1.46-5.46,3.91-5.46s3.9,2,3.9,5.46-1.44,5.46-3.9,5.46S133.51,249,133.51,245.48Zm3.91,4.06c1.43,0,2.29-1.41,2.29-4.06s-.87-4.09-2.29-4.1-2.29,1.46-2.29,4.1S136,249.54,137.42,249.54Z"/>
<path class="cls-2" d="M147.32,252.39h-1.4l3.42-12.72h1.4Z"/>
<path class="cls-2" d="M159.59,250.79H158v-9h-.06l-2.54,1.66V241.9l2.65-1.73h1.58Z"/>
<path class="cls-2" d="M133.51,279.67c0-3.46,1.46-5.46,3.91-5.46s3.9,2,3.9,5.46-1.44,5.46-3.9,5.46S133.51,283.14,133.51,279.67Zm3.91,4.06c1.43,0,2.29-1.41,2.29-4.06s-.87-4.09-2.29-4.1-2.29,1.45-2.29,4.1S136,283.73,137.42,283.73Z"/>
<path class="cls-2" d="M147.32,286.58h-1.4l3.42-12.73h1.4Z"/>
<path class="cls-2" d="M159.59,285H158v-9h-.06l-2.54,1.65v-1.54l2.65-1.73h1.58Z"/>
<path class="cls-2" d="M133.51,313.85c0-3.45,1.46-5.46,3.91-5.46s3.9,2,3.9,5.46-1.44,5.46-3.9,5.46S133.51,317.33,133.51,313.85Zm3.91,4.07c1.43,0,2.29-1.42,2.29-4.07s-.87-4.09-2.29-4.09-2.29,1.45-2.29,4.09S136,317.92,137.42,317.92Z"/>
<path class="cls-2" d="M147.32,320.77h-1.4L149.34,308h1.4Z"/>
<path class="cls-2" d="M159.59,319.17H158v-9h-.06l-2.54,1.66v-1.54l2.65-1.73h1.58Z"/>
<path class="cls-2" d="M133.51,348c0-3.46,1.46-5.46,3.91-5.46s3.9,2,3.9,5.46-1.44,5.46-3.9,5.46S133.51,351.52,133.51,348Zm3.91,4.07c1.43,0,2.29-1.42,2.29-4.07s-.87-4.09-2.29-4.1-2.29,1.46-2.29,4.1S136,352.11,137.42,352.11Z"/>
<path class="cls-2" d="M147.32,355h-1.4l3.42-12.72h1.4Z"/>
<path class="cls-2" d="M159.59,353.35H158v-9h-.06L155.36,346v-1.54l2.65-1.73h1.58Z"/>
<rect class="cls-3" x="191" y="84.75" width="48" height="24" rx="5.08"/>
<path class="cls-1" d="M211.65,99.28l-.84,1.21a5,5,0,0,1-2.69-3,5.38,5.38,0,0,1-2.71,3.26l-.89-1.23a5.15,5.15,0,0,0,2.78-4.72v-.68H205V92.88h6.23v1.26h-2.31v.68A4.76,4.76,0,0,0,211.65,99.28Zm.63-7.47h1.56v11h-1.56Z"/>
<path class="cls-1" d="M222.37,96.38l.08,1.1c-.87.15-1.77.25-2.66.32v2.09h-1.56v1.52h6.68v1.23H216.7V99.35h1.53V97.89c-1,0-1.92,0-2.76,0l-.18-1.22A63.21,63.21,0,0,0,222.37,96.38Zm-3.49-4.18c1.6,0,2.74.8,2.75,2s-1.15,1.94-2.75,1.93-2.78-.75-2.78-1.93S217.24,92.19,218.88,92.2Zm0,2.8c.74,0,1.27-.29,1.28-.82s-.54-.85-1.28-.85-1.32.3-1.31.85S218.09,95,218.88,95Zm5.79,5.15h-1.55v-.87H221V98.22h2.11V91.83h1.55Z"/>
<rect class="cls-3" x="241.22" y="150.15" width="61.78" height="30.89" rx="5.08"/>
<path class="cls-1" d="M267.79,168.85l-1.08,1.56a6.51,6.51,0,0,1-3.46-3.84,6.9,6.9,0,0,1-3.49,4.19l-1.14-1.57a6.6,6.6,0,0,0,3.57-6.08v-.88h-3v-1.62h8v1.62h-3v.88A6.1,6.1,0,0,0,267.79,168.85Zm.81-9.61h2v14.19h-2Z"/>
<path class="cls-1" d="M281.59,165.12l.11,1.42c-1.12.19-2.29.32-3.43.4v2.7h-2v2h8.59v1.59H274.29v-4.24h2v-1.88c-1.27.05-2.48.06-3.55.06l-.24-1.58A83.67,83.67,0,0,0,281.59,165.12Zm-4.49-5.38c2.06,0,3.53,1,3.54,2.54s-1.48,2.5-3.54,2.5-3.57-1-3.57-2.5S275,159.73,277.1,159.74Zm0,3.6c.95,0,1.64-.37,1.65-1.06s-.7-1.09-1.65-1.09-1.69.39-1.69,1.09S276.09,163.35,277.1,163.34Zm7.45,6.63h-2v-1.12h-2.72v-1.36h2.72v-8.23h2Z"/>
<rect class="cls-3" x="191" y="232.55" width="48" height="24" rx="5.08"/>
<path class="cls-1" d="M211.65,247.08l-.84,1.21a5,5,0,0,1-2.69-3,5.41,5.41,0,0,1-2.71,3.26l-.89-1.23a5.15,5.15,0,0,0,2.78-4.72v-.68H205v-1.26h6.23v1.26h-2.31v.68A4.76,4.76,0,0,0,211.65,247.08Zm.63-7.47h1.56v11h-1.56Z"/>
<path class="cls-1" d="M222.37,244.18l.08,1.1c-.87.15-1.77.25-2.66.32v2.09h-1.56v1.52h6.68v1.23H216.7v-3.29h1.53v-1.46c-1,0-1.92,0-2.76,0l-.18-1.22A65.68,65.68,0,0,0,222.37,244.18ZM218.88,240c1.6,0,2.74.8,2.75,2s-1.15,1.94-2.75,1.93-2.78-.75-2.78-1.93S217.24,240,218.88,240Zm0,2.8c.74,0,1.27-.29,1.28-.82s-.54-.85-1.28-.85-1.32.3-1.31.85S218.09,242.81,218.88,242.8Zm5.79,5.15h-1.55v-.87H221V246h2.11v-6.4h1.55Z"/>
<rect class="cls-3" x="191" y="266.95" width="48" height="24" rx="5.08"/>
<path class="cls-1" d="M211.65,281.48l-.84,1.21a5,5,0,0,1-2.69-3,5.38,5.38,0,0,1-2.71,3.26l-.89-1.23A5.15,5.15,0,0,0,207.3,277v-.68H205v-1.26h6.23v1.26h-2.31V277A4.76,4.76,0,0,0,211.65,281.48Zm.63-7.47h1.56v11h-1.56Z"/>
<path class="cls-1" d="M222.37,278.58l.08,1.1c-.87.15-1.77.25-2.66.32v2.09h-1.56v1.52h6.68v1.23H216.7v-3.29h1.53v-1.46c-1,0-1.92,0-2.76,0l-.18-1.22A63.21,63.21,0,0,0,222.37,278.58Zm-3.49-4.18c1.6,0,2.74.8,2.75,2s-1.15,1.94-2.75,1.93-2.78-.75-2.78-1.93S217.24,274.39,218.88,274.4Zm0,2.8c.74,0,1.27-.29,1.28-.82s-.54-.85-1.28-.85-1.32.3-1.31.85S218.09,277.21,218.88,277.2Zm5.79,5.15h-1.55v-.87H221v-1.06h2.11V274h1.55Z"/>
<rect class="cls-3" x="191" y="301.35" width="48" height="24" rx="5.08"/>
<path class="cls-1" d="M211.65,315.88l-.84,1.21a5,5,0,0,1-2.69-3,5.41,5.41,0,0,1-2.71,3.26l-.89-1.23a5.15,5.15,0,0,0,2.78-4.72v-.68H205v-1.26h6.23v1.26h-2.31v.68A4.76,4.76,0,0,0,211.65,315.88Zm.63-7.47h1.56v11h-1.56Z"/>
<path class="cls-1" d="M222.37,313l.08,1.1c-.87.15-1.77.25-2.66.32v2.09h-1.56V318h6.68v1.23H216.7V316h1.53v-1.46c-1,0-1.92,0-2.76,0l-.18-1.22A68.36,68.36,0,0,0,222.37,313Zm-3.49-4.18c1.6,0,2.74.8,2.75,2s-1.15,1.94-2.75,1.93-2.78-.75-2.78-1.93S217.24,308.79,218.88,308.8Zm0,2.8c.74,0,1.27-.29,1.28-.82s-.54-.85-1.28-.85-1.32.3-1.31.85S218.09,311.61,218.88,311.6Zm5.79,5.15h-1.55v-.87H221v-1.06h2.11v-6.4h1.55Z"/>
<rect class="cls-3" x="191" y="335.75" width="48" height="24" rx="5.08"/>
<path class="cls-1" d="M211.65,350.28l-.84,1.21a5,5,0,0,1-2.69-3,5.38,5.38,0,0,1-2.71,3.26l-.89-1.23a5.15,5.15,0,0,0,2.78-4.72v-.68H205v-1.26h6.23v1.26h-2.31v.68A4.76,4.76,0,0,0,211.65,350.28Zm.63-7.47h1.56v11h-1.56Z"/>
<path class="cls-1" d="M222.37,347.38l.08,1.1c-.87.15-1.77.25-2.66.32v2.09h-1.56v1.52h6.68v1.23H216.7v-3.29h1.53v-1.46c-1,0-1.92,0-2.76,0l-.18-1.22A63.21,63.21,0,0,0,222.37,347.38Zm-3.49-4.18c1.6,0,2.74.8,2.75,2s-1.15,1.94-2.75,1.93-2.78-.75-2.78-1.93S217.24,343.19,218.88,343.2Zm0,2.8c.74,0,1.27-.29,1.28-.82s-.54-.85-1.28-.85-1.32.3-1.31.85S218.09,346,218.88,346Zm5.79,5.15h-1.55v-.87H221v-1.06h2.11v-6.39h1.55Z"/>
<path fill="current" d="M312,202.5H49a12.76,12.76,0,0,1-12.75-12.75v-45A12.76,12.76,0,0,1,49,132H312a12.76,12.76,0,0,1,12.75,12.75v45A12.76,12.76,0,0,1,312,202.5Zm-263-69a11.27,11.27,0,0,0-11.25,11.25v45A11.27,11.27,0,0,0,49,201H312a11.27,11.27,0,0,0,11.25-11.25v-45A11.27,11.27,0,0,0,312,133.5Z"/>
<path fill="current" d="M325,245.81l-1.62-2.42c-11-16.44-22-32.94-33.14-49.3-4.77-7-3.45-14-.18-18.31,6.58-8.57,18.67-8,24.95,1.28,7,10.29,13.87,20.64,20.8,31l1.58,2.35c2.35-4.55,5.65-7.69,10.5-8.82a15.43,15.43,0,0,1,13.23,3.07c4.59-9.91,14.43-12.17,22.76-7.37a13.75,13.75,0,0,1,8.84-8.13,13.29,13.29,0,0,1,14.2,4.5c.68.88,1.33,1.8,1.95,2.73,11.16,16.62,22.25,33.3,33.52,49.86a99.16,99.16,0,0,1,10.62,21,141.55,141.55,0,0,0,7.83,16.23c1.77,3.35,1.73,4.6-1.35,6.66l-62.5,42c-3.11,2.08-4.59,1.81-6.65-1.24-1.75-2.59-3.57-5.14-5.21-7.8a7.62,7.62,0,0,0-8.09-3.86c-5.75.67-11.47.64-16.93-1.61a44.4,44.4,0,0,1-5.76-2.91c-8.05-4.78-16-9.69-24.1-14.46-7-4.11-10-10.11-9-18.13.19-1.63.35-3.26.57-4.88a12,12,0,0,0-2.64-9.36c-5.73-7.27-3.91-16.22,4.13-20.9C323.83,246.65,324.3,246.3,325,245.81Zm129.2,39.82c-.38-.77-.69-1.35-1-2-2.41-5.34-4.8-10.69-7.24-16-2-4.39-3.77-8.9-6.14-13.09-2.51-4.46-5.58-8.61-8.44-12.88q-14.12-21.06-28.27-42.09a13.59,13.59,0,0,0-2.77-3.17,6.72,6.72,0,0,0-8.28.31,7,7,0,0,0-1.58,8.55c1.32,2.74,1.07,4.34-.86,5.39-1.77,1-3.35.3-5-2.06-.89-1.29-1.72-2.62-2.65-3.87a8.33,8.33,0,0,0-8.94-3,8.52,8.52,0,0,0-4.92,12.59c1.21,2.1.69,3.91-.95,4.84s-3.31.41-4.72-1.61-2.74-4.27-4.3-6.26c-3.12-4-8-4.66-11.86-1.83-3.71,2.69-4.46,7.56-1.73,11.71,2.37,3.61,4.8,7.18,7.21,10.76,2,3,2.07,4.94.1,6.21s-3.6.48-5.67-2.61l-36.1-53.78c-.5-.74-1-1.5-1.53-2.2a8.38,8.38,0,0,0-10.84-2,8.25,8.25,0,0,0-3.37,10.65,23.15,23.15,0,0,0,1.91,3.26q28.18,42,56.37,84c1.66,2.47,1.57,4.26-.2,5.48s-3.49.64-5.16-1.78c-.43-.61-.83-1.23-1.25-1.85-5.39-8-10.81-16.06-16.15-24.13-.81-1.21-1.47-1.53-2.85-.88-4.64,2.17-6.1,7-3.07,11.07,2.72,3.7,4.7,7.6,4.42,12.32-.14,2.22-.31,4.45-.63,6.66-.84,5.6,1.27,9.63,6.13,12.48,7.12,4.16,14.31,8.24,21.19,12.78,6.53,4.32,13.41,6.18,21.15,5.1,6.56-.92,11.39,1.78,14.79,7.35,1.15,1.87,2.44,3.66,3.67,5.5Z"/>
<path class="cls-1" d="M454.22,285.63l-59.45,39.9c-1.23-1.84-2.52-3.63-3.67-5.5-3.4-5.57-8.23-8.27-14.79-7.35-7.74,1.08-14.62-.78-21.15-5.1C348.28,303,341.09,299,334,294.8c-4.86-2.85-7-6.88-6.13-12.48.32-2.21.49-4.44.63-6.66.28-4.72-1.7-8.62-4.42-12.32-3-4.12-1.57-8.9,3.07-11.07,1.38-.65,2-.33,2.85.88,5.34,8.07,10.76,16.09,16.15,24.13.42.62.82,1.24,1.25,1.85,1.67,2.42,3.38,3,5.16,1.78s1.86-3,.2-5.48q-28.17-42-56.37-84a23.15,23.15,0,0,1-1.91-3.26,8.25,8.25,0,0,1,3.37-10.65,8.38,8.38,0,0,1,10.84,2c.55.7,1,1.46,1.53,2.2l36.1,53.78c2.07,3.09,3.75,3.86,5.67,2.61s1.93-3.17-.1-6.21c-2.41-3.58-4.84-7.15-7.21-10.76-2.73-4.15-2-9,1.73-11.71,3.9-2.83,8.74-2.14,11.86,1.83,1.56,2,2.85,4.18,4.3,6.26s3.06,2.55,4.72,1.61,2.16-2.74.95-4.84a8.52,8.52,0,0,1,4.92-12.59,8.33,8.33,0,0,1,8.94,3c.93,1.25,1.76,2.58,2.65,3.87,1.61,2.36,3.19,3,5,2.06,1.93-1,2.18-2.65.86-5.39a7,7,0,0,1,1.58-8.55,6.72,6.72,0,0,1,8.28-.31,13.59,13.59,0,0,1,2.77,3.17q14.16,21,28.27,42.09c2.86,4.27,5.93,8.42,8.44,12.88,2.37,4.19,4.15,8.7,6.14,13.09,2.44,5.34,4.83,10.69,7.24,16C453.53,284.28,453.84,284.86,454.22,285.63Z"/></g></g></svg>