<svg xmlns="http://www.w3.org/2000/svg" viewBox="0 0 744.48 509.24">
<defs>
<style>.cls-2{fill:#bbffa8;}.cls-3{fill:#ff6d60;}.cls-4{fill:#87a2fb;}</style>
</defs>
<g id="레이어_2" data-name="레이어 2">
<g id="레이어_8" data-name="레이어 8">
<path fill="current" d="M332,8.67A49,49,0,0,1,377.8,40.49,48.87,48.87,0,0,1,349,103.08L151.92,175.92a48.34,48.34,0,0,1-16.77,3A49,49,0,0,1,89.32,147.1a48.86,48.86,0,0,1,28.82-62.59L315.21,11.67a48.3,48.3,0,0,1,16.77-3h0m0-1.5a49.6,49.6,0,0,0-17.28,3.1L117.62,83.1a50.37,50.37,0,0,0-29.7,64.52h0a50.39,50.39,0,0,0,47.23,32.8,49.61,49.61,0,0,0,17.29-3.1l197.07-72.83A50.37,50.37,0,0,0,379.21,40h0A50.41,50.41,0,0,0,332,7.17Z"/>
<path fill="current" d="M159.67,107.32c-1.21-1.33-2.57-3.11-4.84-6l14.1,38.17-7.45,2.75L144.77,97.08l11.41-4.21,21.47,24,.28-32,11.53-4.26,16.7,45.19-7.58,2.8L184.47,90.39a63.5,63.5,0,0,1,.4,7.62l-.67,27.31-6.39,2.37Z"/>
<path fill="current" d="M210.81,113.64l-.74-2c-2.09-5.64-.32-11.06,9.4-14.65l7.89-2.92-.48-1.32c-1.58-4.26-4.11-5.32-8.37-3.74a16.35,16.35,0,0,0-8.5,7l-6-4.32A24.71,24.71,0,0,1,216,82c8.09-3,15.42-1.06,18,5.89l9,24.26-7.09,2.62-1.7-4.22c-.18,3.56-4.44,7.06-8.08,8.4C218.7,121.69,213.05,119.72,210.81,113.64Zm18.82-13.44-7.71,2.85c-4.13,1.53-4.95,3.75-3.95,6.45l.28.75c.83,2.26,2.95,3,6,1.84,3.32-1.23,5.26-2.73,6.28-5,.94-1.92.38-3.42-.57-6Z"/>
<path fill="current" d="M261.74,82.21,283.2,97.29,273.11,101l-14.83-11.2L256,95.67l3.8,10.28-7.9,2.92L234.35,61.49l7.9-2.92L252.39,86l7.51-19.38,10-3.68Z"/>
<path fill="current" d="M314.55,82.07c-2.49,3.48-6.35,6.54-12.8,8.93-8,2.94-17.18,2.08-21.75-10.27l-1.32-3.57c-4.14-11.22,1-18.68,9.78-21.93s17-.5,20.71,9.59l2.11,5.7-23.13,8.55c2,5.52,6.09,7.22,11.61,5.19a20.37,20.37,0,0,0,9.42-6.69Zm-13.06-14.7-.55-1.5c-1.37-3.7-4.68-6.11-10.2-4.07-5.26,2-6.71,6.12-5.28,10l.49,1.32Z"/>
<path fill="current" d="M405.16,0V1.5h0a48.73,48.73,0,0,1,40.71,21.71L578.48,222.77a48.73,48.73,0,0,1-81.17,53.93L364.7,77.15A48.87,48.87,0,0,1,378.32,9.6a48.31,48.31,0,0,1,26.84-8.1V0m0,0a49.8,49.8,0,0,0-27.67,8.35h0a50.37,50.37,0,0,0-14,69.63L496.06,277.53a50.36,50.36,0,0,0,69.63,14h0a50.38,50.38,0,0,0,14-69.63L447.12,22.38A50.31,50.31,0,0,0,405.16,0Z"/>
<path fill="current" d="M464.08,94.07l-6,4-7.8-11.74L416.15,109l-4.73-7.13L445.53,79.2l-7.84-11.8,6-4Z"/>
<path fill="current" d="M444.32,145.23c-4-1.62-7.83-4.66-11.64-10.39-4.69-7.07-6-16.25,5-23.53l3.17-2.11c10-6.62,18.4-3.33,23.58,4.47s4.41,16.4-4.55,22.36l-5.07,3.36-13.64-20.53c-4.9,3.25-5.63,7.59-2.38,12.48a20.27,20.27,0,0,0,8.69,7.63Zm11.29-16.08,1.34-.89c3.28-2.18,4.87-6,1.61-10.86-3.11-4.67-7.5-5.13-10.95-2.83l-1.17.77Z"/>
<path fill="current" d="M453.49,147.56l1.79-1.18c5-3.33,10.69-2.86,16.42,5.77l4.66,7,1.17-.77c3.79-2.52,4.24-5.22,1.72-9a16.4,16.4,0,0,0-8.83-6.65l2.83-6.85a24.78,24.78,0,0,1,12.22,9.45c4.77,7.18,4.59,14.76-1.59,18.86l-21.54,14.32-4.17-6.29,3.71-2.63c-3.51.65-7.9-2.7-10-5.92C447.48,157.1,448.1,151.15,453.49,147.56Zm17.42,15.23-4.55-6.85c-2.44-3.67-4.79-3.95-7.18-2.36l-.67.44c-2,1.33-2.21,3.56-.4,6.28,2,2.95,3.87,4.49,6.27,5,2.08.47,3.41-.42,5.7-1.94Z"/>
<path fill="current" d="M516.2,216.69l-19.76,13.13-4.66-7,18.31-12.17c5.51-3.66,5.05-7.13,3.09-10.08-1.81-2.72-5.18-4.65-10.3-1.25l-18.53,12.31-4.66-7,18.42-12.24c5.18-3.44,5.05-6.89,3-10-2.18-3.29-5.79-4.26-10-1.45l-18.81,12.5-4.66-7L498.26,166l4.4,6.62-3.89,2.59.07.11c3.78-.35,7.52,1.42,10.15,5.37,2.51,3.78,2.8,8.32.76,11.29,4.5.13,7.93,1.79,11,6.41C524.52,204.1,523.88,211.59,516.2,216.69Z"/>
<path fill="current" d="M389.16,136.19a48.72,48.72,0,0,1,5.57,97.13L194.24,256.39a47.28,47.28,0,0,1-5.57.32,48.72,48.72,0,0,1-5.58-97.13l200.5-23.07a47.28,47.28,0,0,1,5.57-.32h0m0-1.5a48.39,48.39,0,0,0-5.74.33l-200.5,23.07a50.38,50.38,0,0,0-44.15,55.64h0a50.22,50.22,0,0,0,55.64,44.15L394.9,234.81a50.38,50.38,0,0,0,44.16-55.64h0a50.39,50.39,0,0,0-49.9-44.48Z"/>
<path fill="current" d="M266.06,222.77l-9.23,1.07-6.16-12.61-16.13,1.85-3.2,13.69-8.69,1,12.28-49.91,7.63-.88ZM236.18,205.7l11.22-1.29L243,195c-1.49-3.05-2.3-4.84-3.23-7.09-.43,2.74-.67,4.11-1.48,7.64Z"/>
<path fill="current" d="M301.09,194.6l2.74,23.83-8.36,1-2.54-22c-.63-5.44-3.18-7.77-7.89-7.23-2.72.31-7.76,2.11-6.93,9.34l2.49,21.64-8.37,1L268,185.49l7.9-.91.49,4.18h.13c2.17-3.95,5.93-5.73,10.24-6.23C293.36,181.77,300,184.77,301.09,194.6Z"/>
<path fill="current" d="M335.73,210.38l-.2,0c-1.52,3.74-5.55,5.55-9.93,6.05-9.36,1.08-14.66-4.1-15.8-14l-.74-6.44c-1.14-9.89,3.95-16.53,12.78-17.54,5.77-.67,8.83,1.34,10.07,2.81L330,164.57l8.36-1,5.78,50.18-7.9.91Zm-17.84-10.12c.71,6.18,3.71,9.46,8.55,8.91,5.51-.64,8.24-5,7.67-10l-.86-7.43c-.39-3.39-3.42-6.94-9.19-6.27-5.31.61-7.35,4.54-6.65,10.65Z"/>
<path fill="current" d="M50.23,229.13h0a50.62,50.62,0,0,1,5.35.29l352.31,38.92a48.73,48.73,0,0,1-5.35,97.16,50.62,50.62,0,0,1-5.35-.29L44.88,326.28a48.73,48.73,0,0,1,5.35-97.15m0-1.5A50.4,50.4,0,0,0,.3,272.34h0a50.37,50.37,0,0,0,44.41,55.43L397,366.7a51.28,51.28,0,0,0,5.51.3,50.39,50.39,0,0,0,49.92-44.71h0a50.37,50.37,0,0,0-44.4-55.44L55.74,227.93a51.28,51.28,0,0,0-5.51-.3Z"/>
<path fill="current" d="M81.19,289.94l.08-.73c.42-3.85-2.38-5.84-7.7-7.64-7.78-2.61-16.59-5-15.36-16.08l.09-.86c.64-5.78,5.68-13,18.63-11.59,5.24.58,10,2,14.5,5.63l-4.71,6.14a17.85,17.85,0,0,0-10.5-4.19c-6-.67-9.18,2.21-9.47,4.8l-.09.8c-.51,4.65,4.13,5.84,9.64,7.72,11,3.77,14.28,8.84,13.55,15.41l-.09.87c-1.18,10.69-9.85,13.09-19.15,12.07-6.91-.77-13.14-3.94-16.53-7.41L59,288.56a21.31,21.31,0,0,0,12.9,6.13C77.9,295.36,80.83,293.2,81.19,289.94Z"/>
<path fill="current" d="M131,284.09l-2.63,23.84L120,307,122.48,285c.6-5.45-1.37-8.29-6.09-8.81-2.72-.3-8,.32-8.83,7.56l-2.4,21.65-8.36-.92,5.54-50.21,7.91.87-2,17.8.13,0c3-3.37,7.06-4.26,11.38-3.79C126.36,269.86,132.13,274.26,131,284.09Z"/>
<path fill="current" d="M137.91,292.51l.48-4.32c1.19-10.75,8.63-16.05,19-14.9s16.47,7.93,15.28,18.69l-.48,4.32c-1.18,10.69-8.63,16.05-19,14.91S136.73,303.2,137.91,292.51Zm25.85,2.72.45-4.05c.77-7-2.39-10-7.64-10.59s-9,1.7-9.76,8.67l-.45,4.05c-.77,7,2.66,10,7.64,10.59S163,302.21,163.76,295.23Z"/>
<path fill="current" d="M183.6,314l-5-37.6,9,1,2.25,28.95.27,0,9.77-27.62,7.9.87,3.18,29.06.27,0,9-27.72,8.37.93-13.07,35.59-9.77-1.07L202.52,290l-.26,0-8.89,25.1Z"/>
<path fill="current" d="M270.05,304.42,268,323.35l-8.5-.94,2.09-18.93-13.21-30.77,9.5,1.05,9,22.38,13.49-19.89,9.3,1Z"/>
<path fill="current" d="M285.43,308.81l.48-4.32c1.19-10.76,8.63-16.05,19-14.91s16.47,7.94,15.28,18.7l-.48,4.32c-1.18,10.69-8.63,16-19,14.91S284.25,319.5,285.43,308.81Zm25.85,2.72.45-4c.77-7-2.39-10-7.64-10.59s-9,1.69-9.76,8.67l-.45,4.05c-.77,7,2.66,10,7.64,10.59S310.51,318.5,311.28,311.53Z"/>
<path fill="current" d="M327,316.77l2.61-23.65,8.37.93-2.41,21.85c-.71,6.38,2.1,8.37,6,8.8,3.32.37,8-1.14,8.71-7.71l2.36-21.32,8.37.92L357,333.19l-8-.88.49-4.39h-.14c-2.43,3.23-7.19,4.25-11.17,3.81C330.59,330.87,326.06,325.67,327,316.77Z"/>
<path fill="current" d="M391.39,307.54a11.1,11.1,0,0,0-4.56-1.31,8,8,0,0,0-9.07,7.27l-2.4,21.71-8.37-.92,4-36.59,8,.88-.59,5.32h.13a10.8,10.8,0,0,1,10.91-5,17.42,17.42,0,0,1,5.1,1.3Z"/>
<path fill="current" d="M694.16,249.33a49.49,49.49,0,0,1,28.38,9.09,48.23,48.23,0,0,1,18,24.45,48.77,48.77,0,0,1-31.12,61.47L481.75,419a48.32,48.32,0,0,1-15.06,2.41,49.5,49.5,0,0,1-28.39-9.09,48.3,48.3,0,0,1-18-24.45,48.79,48.79,0,0,1,31.13-61.48l227.69-74.61a48.29,48.29,0,0,1,15.07-2.41h0m0-1.5a50,50,0,0,0-15.53,2.48L450.94,324.93a50.38,50.38,0,0,0-32.09,63.37h0a50.43,50.43,0,0,0,47.84,34.57,49.72,49.72,0,0,0,15.53-2.49L709.9,345.77A50.38,50.38,0,0,0,742,282.4h0a50.4,50.4,0,0,0-47.84-34.57Z"/>
<path fill="current" d="M460.22,348.35l17.27-5.66c11-3.6,17.51.45,20,7.94l.44,1.34c2.43,7.43-.57,15.44-11.17,18.91l-9.15,3,5.77,17.59-8.13,2.66Zm10.35,4.13L475.33,367l8.07-2.64c5.33-1.75,8-4.52,6.26-9.86l-.37-1.14c-1.65-5-5.32-5.29-10-3.77Z"/>
<path fill="current" d="M526.37,346.57a11.11,11.11,0,0,0-4.7.7,8,8,0,0,0-5.25,10.37l6.81,20.76-8,2.62-11.47-35,7.68-2.52,1.67,5.08.12,0a10.8,10.8,0,0,1,7.87-9.05,17.19,17.19,0,0,1,5.18-.92Z"/>
<path fill="current" d="M536,357l-1.35-4.13c-3.37-10.29,1.21-18.19,11.12-21.43s18.27.41,21.65,10.69l1.35,4.13c3.35,10.22-1.21,18.18-11.12,21.43S539.39,367.2,536,357Zm24.66-8.23-1.27-3.87c-2.18-6.67-6.32-8.12-11.33-6.48s-7.49,5.27-5.3,11.93l1.27,3.88c2.18,6.66,6.57,8,11.33,6.48S562.88,355.42,560.69,348.75Z"/>
<path fill="current" d="M567.13,310l8.38-2.74,2.83,8.63L570,318.65Zm25.21,49.26c2.14,6.54.61,12-7.52,14.62a25.48,25.48,0,0,1-7.23,1.32l-.85-6.89a16.66,16.66,0,0,0,4.78-.87c2.92-.95,3.82-2.51,2.71-5.88l-12.4-37.84,8-2.62Z"/>
<path fill="current" d="M628.46,340.33c-2.62,3.39-6.58,6.3-13.12,8.45-8.07,2.64-17.25,1.43-21.35-11.08l-1.19-3.62c-3.72-11.36,1.7-18.63,10.59-21.54s17,.13,20.34,10.35l1.9,5.78-23.43,7.68c1.83,5.59,5.81,7.44,11.4,5.61a20.27,20.27,0,0,0,9.67-6.33ZM616,325.16l-.5-1.53c-1.23-3.74-4.45-6.27-10-4.44-5.33,1.74-6.94,5.86-5.65,9.79l.44,1.34Z"/>
<path fill="current" d="M654.34,300.42l-2,7.11a13.77,13.77,0,0,0-9.87-.07c-4,1.31-7,4.88-4.85,11.36l1.39,4.26c2.33,7.11,7.38,7.7,10.87,6.56a15.38,15.38,0,0,0,8.55-6.11l5.72,4.6c-1.64,2.92-5.67,6.5-12,8.58-10.29,3.37-17.87-.9-21.14-10.87l-1.44-4.38c-3.26-10,.85-17.78,10.63-21C646.83,298.31,650.92,299.22,654.34,300.42Z"/>
<path fill="current" d="M664.35,300.72l-5.58,1.83L656.6,296l5.59-1.83-2.93-9,8-2.62,2.93,9,8.83-2.9,2.16,6.61-8.82,2.89,6,18.41c1,3,2.52,3.18,4.61,2.5a13,13,0,0,0,4.62-2.64l3.38,6a19.68,19.68,0,0,1-6.7,3.81c-8,2.62-11.75-.44-13.89-7Z"/>
<path fill="current" d="M226.4,468.43v-.74c0-3.87-3-5.54-8.49-6.75-8-1.73-17-3.14-17-14.3v-.86c0-5.82,4.21-13.57,17.24-13.57,5.28,0,10.16.87,15,4l-4,6.62a17.83,17.83,0,0,0-10.9-3c-6.08,0-8.88,3.21-8.88,5.81v.8c0,4.68,4.74,5.35,10.42,6.62,11.36,2.54,15.17,7.22,15.17,13.83v.87c0,10.76-8.35,14.1-17.71,14.1-7,0-13.49-2.47-17.24-5.55l4.15-6.81a21.33,21.33,0,0,0,13.49,4.67C223.72,474.17,226.4,471.7,226.4,468.43Z"/>
<path fill="current" d="M243.51,429.81h8.81v9.08h-8.81Zm.2,14.5h8.41v36.81h-8.41Z"/>
<path fill="current" d="M285.27,476.78h-.2c-1.94,3.54-6.15,4.88-10.56,4.88-9.42,0-14.1-5.75-14.1-15.7v-6.49c0-10,5.82-16,14.7-16,5.82,0,8.62,2.34,9.69,3.95V430.61h8.42v50.51h-8ZM268.7,464.69c0,6.21,2.6,9.82,7.48,9.82,5.55,0,8.75-4,8.75-9V458c0-3.4-2.6-7.28-8.41-7.28-5.35,0-7.82,3.68-7.82,9.82Z"/>
<path fill="current" d="M373.54,433V440H351v13h21.12v6.95H351V474h23v7.08H342.54V433Z"/>
<path fill="current" d="M385.17,451.19h-5.88v-6.88h5.88v-2.54c0-7.35,3.94-11.56,12-11.56a22.83,22.83,0,0,1,6.95,1.07L402.81,438a14.87,14.87,0,0,0-4.81-.67c-2.94,0-4.41,1.53-4.41,4.61v2.34h9.29v6.88h-9.29v29.93h-8.42Z"/>
<path fill="current" d="M412.3,451.19h-5.88v-6.88h5.88v-2.54c0-7.35,3.94-11.56,12-11.56a22.83,22.83,0,0,1,6.95,1.07L429.94,438a14.87,14.87,0,0,0-4.81-.67c-2.94,0-4.41,1.53-4.41,4.61v2.34H430v6.88h-9.29v29.93H412.3Z"/>
<path fill="current" d="M466.49,477.71c-3.54,2.41-8.22,4-15.1,4-8.49,0-16.84-4-16.84-17.17v-3.81c0-12,7.42-17.18,16.77-17.18s16.11,5.42,16.11,16.17v6.08H442.77c0,5.88,3.21,8.89,9.09,8.89a20.32,20.32,0,0,0,11.16-3Zm-7.15-18.3V457.8c0-3.94-2.27-7.35-8.15-7.35-5.61,0-8.42,3.41-8.42,7.55v1.41Z"/>
<path fill="current" d="M503.51,447.85,499.44,454a13.82,13.82,0,0,0-9.36-3.15c-4.21,0-8.15,2.48-8.15,9.29v4.48c0,7.48,4.61,9.62,8.28,9.62a15.37,15.37,0,0,0,10-3.14l4,6.15c-2.48,2.27-7.42,4.41-14.1,4.41-10.83,0-16.71-6.42-16.71-16.91v-4.61c0-10.49,6.35-16.64,16.64-16.64C497,443.5,500.64,445.64,503.51,447.85Z"/>
<path fill="current" d="M512.93,451.25h-5.88v-6.94h5.88v-9.43h8.42v9.43h9.29v6.94h-9.29v19.38c0,3.14,1.41,3.81,3.61,3.81a13,13,0,0,0,5.21-1.07l1.34,6.75a19.49,19.49,0,0,1-7.55,1.54c-8.42,0-11-4.08-11-11Z"/>
<path class="cls-2" d="M310.81,509c1.14-2.54,2.27-5.07,3.41-7.6l21.57-47.85c.43-.95.34-1.13-.15-1.24-3.28-.75-6.54-1.55-9.81-2.33l-.71-.17c1.05-2.43,2-4.73,3-7l20.46-47.69c.27-.62.47-1,.88-.86q11.29,2.75,22.62,5.43a1.51,1.51,0,0,1,.26.12c-8.44,14.57-16.83,29.08-25.32,43.73l10.77,2.57-46.89,63.16Z"/>
<circle class="cls-3" cx="110.17" cy="204.67" r="28.73"/>
<path fill="current" d="M333.25,477.71c-3.54,2.41-8.22,4-15.1,4-8.49,0-16.84-4-16.84-17.17v-3.81c0-12,7.41-17.18,16.77-17.18s16.1,5.42,16.1,16.17v6.08H309.53c0,5.88,3.2,8.89,9.08,8.89a20.27,20.27,0,0,0,11.16-3Zm-7.15-18.3V457.8c0-3.94-2.27-7.35-8.16-7.35-5.61,0-8.41,3.41-8.41,7.55v1.41Z"/>
<path class="cls-1" fill="current" d="M630.55,508.18h-534a50.25,50.25,0,0,1,0-100.5h534a50.25,50.25,0,0,1,0,100.5Zm-534-99a48.75,48.75,0,0,0,0,97.5h534a48.75,48.75,0,0,0,0-97.5Z"/><polygon class="cls-4" points="246.44 350.18 196.58 378.97 246.44 407.76 246.44 350.18"/>
<polygon class="cls-4" points="246.44 350.18 196.58 378.97 246.44 407.76 246.44 350.18"/>
<rect class="cls-2" x="412.8" y="225.58" width="49.85" height="49.85" transform="translate(171.84 -178.05) rotate(28.4)"/>
<text/></g></g></svg>