<svg xmlns="http://www.w3.org/2000/svg" viewBox="0 0 579.75 469.75"><defs><style>.cls-1{fill:#fff;}.cls-2{fill:#6f6f6f;}.cls-3{fill:#87a2fb;}.cls-4{fill:#ff6d60;}.cls-5{fill:#98a2b3;stroke:#000;stroke-miterlimit:10;stroke-width:1.5px;}.cls-6{fill:#bbffa8;}.cls-7{fill:#a1a1a1;}</style></defs><g id="레이어_2" data-name="레이어 2"><g id="레이어_8" data-name="레이어 8"><rect x="241.75" y="6.75" width="338" height="463" rx="12"/><rect class="cls-1" x="234.75" y="0.75" width="338" height="463" rx="12"/><path d="M560.75,464.5h-314A12.76,12.76,0,0,1,234,451.75v-439A12.76,12.76,0,0,1,246.75,0h314A12.76,12.76,0,0,1,573.5,12.75v439A12.76,12.76,0,0,1,560.75,464.5Zm-314-463A11.27,11.27,0,0,0,235.5,12.75v439A11.27,11.27,0,0,0,246.75,463h314A11.27,11.27,0,0,0,572,451.75v-439A11.27,11.27,0,0,0,560.75,1.5Z"/><path class="cls-2" d="M283.27,44.87H265.86V42.65h17.41ZM267.21,29.73h14.6v2.14h-2.68v5.77h2.59v2.09H267.3V37.64h2.55V31.87h-2.64Zm9.29,7.91V31.87h-4v5.77Z"/><path class="cls-2" d="M301.77,45H284.36V42.78h7.34V39.92h-5.33v-6.4h10.76V31.43H286.35V29.3h13.42v6.31H289v2.13h11.17v2.18h-5.86v2.86h7.42Z"/><path class="cls-2" d="M306.27,32.14v-.57h-3V29.44h8.47v2.13h-2.84v.59a5.08,5.08,0,0,0,3.45,4.93l-1.34,2A6.05,6.05,0,0,1,307.6,36a6.55,6.55,0,0,1-3.6,3.5l-1.41-2.11A5.44,5.44,0,0,0,306.27,32.14Zm-.21,8.22h13.15v6.73h-2.65V42.47h-10.5Zm9.37-.8H312.9V34.92h-2.11V32.77h2.11V28.44h2.53Zm1.25-11.5h2.53v11.6h-2.53Z"/><path class="cls-2" d="M321.37,42.7h17.41v2.17H321.37ZM336.88,40H323.42V29.46h13.32v2.16h-10.6v2H336.3v2.09H326.14v2.18h10.74Z"/><path class="cls-2" d="M348.09,37.56V33.83h2.66v3.65a56.19,56.19,0,0,0,5.62-.49l.15,1.92a68.55,68.55,0,0,1-11.73.82l-.23-2.13C345.62,37.6,346.83,37.6,348.09,37.56Zm7.38-6.93a28.73,28.73,0,0,1-.44,5.58L352.42,36a25.15,25.15,0,0,0,.45-4.34h-7.18V29.44h9.78ZM347.36,41H350v3.6h10.68v2.13H347.36Zm10-13h2.74v5.79h2.3v2.24h-2.3V42.3h-2.74Z"/><path class="cls-2" d="M364.32,29.65h9.05V37H367.1v3.49a49.89,49.89,0,0,0,8.15-.63l.23,2.16a52,52,0,0,1-9.43.67h-1.71v-7.8h6.31V31.8h-6.33Zm14.94,17.48h-2.65V28.06h2.65Z"/><path class="cls-3" d="M273.55,74.08l-.63.9a5.37,5.37,0,0,1-2.8-3.21,5.84,5.84,0,0,1-2.79,3.49l-.66-.91a5.51,5.51,0,0,0,2.86-4.68V68.52H267v-1h6.12v1h-2.47v1.15A5,5,0,0,0,273.55,74.08Zm1-7.61h1.15V77.33h-1.15Z"/><path class="cls-3" d="M284.39,71.12l.07.82c-.92.16-1.9.25-2.86.32v2.11h-1.15V72.32c-1.05,0-2.06,0-2.94,0l-.15-.92A64.44,64.44,0,0,0,284.39,71.12Zm-3.48-4.22c1.59,0,2.69.76,2.69,1.91s-1.1,1.89-2.69,1.89-2.7-.73-2.7-1.89S279.3,66.9,280.91,66.9Zm-2,7H280v2.26h6.71v.93h-7.84Zm2-4c.93,0,1.6-.4,1.6-1s-.67-1.06-1.6-1-1.61.4-1.61,1S280,69.86,280.91,69.86Zm5.53,4.85h-1.15v-1h-2.18v-.81h2.18V66.49h1.15Z"/><path class="cls-3" d="M288.14,67.75h2.55V66.47h1.14v1.28h2.42v.93h-6.11Zm3.11,1.45a2.12,2.12,0,1,1-2.5,2.09C288.75,70,289.78,69.2,291.25,69.2Zm0,3.28a1.21,1.21,0,1,0,0-2.38c-.85,0-1.43.47-1.42,1.19S290.4,72.48,291.25,72.48ZM290.09,74h1.17v2.13h6.16v.93h-7.33Zm7.09.72H296V72.52h-1.74V71.6H296V70.25h-1.74v-.94H296V66.49h1.15Z"/><path class="cls-3" d="M301.62,72.47v-.79c-1.25-.13-2-.69-2-1.52s1-1.55,2.58-1.54,2.58.57,2.59,1.54-.77,1.38-2,1.52v.74a28.5,28.5,0,0,0,2.85-.25l.1.8a41.53,41.53,0,0,1-6.82.43l-.12-.9C299.62,72.5,300.6,72.5,301.62,72.47Zm-2.56-5.11h2.56v-1h1.15v1h2.55v.86h-6.26ZM303.84,74c2.29,0,3.62.6,3.63,1.7s-1.34,1.67-3.63,1.68-3.62-.59-3.62-1.68S301.54,73.94,303.84,74Zm-1.66-3c.92,0,1.49-.28,1.48-.77s-.56-.77-1.48-.77-1.49.3-1.49.77S301.26,70.93,302.18,70.93Zm1.66,5.54c1.6,0,2.45-.3,2.45-.82s-.85-.86-2.45-.85-2.47.3-2.46.85S302.23,76.48,303.84,76.47Zm3.55-6.78H309v1h-1.56v3.19h-1.15V66.49h1.15Z"/><path class="cls-2" d="M276.63,125h-9.94v-1h9.94Zm-9.09-8.45h8.18v.94h-1.66v3.62h1.62V122h-8.12v-.92h1.63v-3.62h-1.65Zm5.39,4.56v-3.62h-2.6v3.62Z"/><path class="cls-2" d="M287.33,122.55H277.4v-.94h4.4v-1.08h-3.13v-2.78h6.27v-1h-6.29v-.91h7.44v2.8h-6.28v1h6.5v.89h-3.37v1.08h4.39Zm-8.63.67h1.15v2.12h6.47v.93H278.7Z"/><path class="cls-2" d="M288.13,124h9.94V125h-9.94Zm8.81-1.85h-7.56v-5.8h7.45v.93h-6.29v1.47h6.06v.91h-6.06v1.57h6.4Z"/><path class="cls-2" d="M303.9,118.53h1v-2.86H306v7.6h-1.08v-3.79h-1a2.41,2.41,0,0,1-2.46,2.15,2.67,2.67,0,0,1,0-5.32A2.43,2.43,0,0,1,303.9,118.53Zm-2.47,2.12A1.52,1.52,0,0,0,302.9,119a1.54,1.54,0,0,0-1.47-1.69A1.51,1.51,0,0,0,300,119,1.5,1.5,0,0,0,301.43,120.65Zm-.52,1.89h1.14v2.63h6.37v.93h-7.51Zm6.11-7.07h1.09v8.12H307Z"/><path class="cls-2" d="M309.57,123.94h9.94v1h-9.94Zm8.8-2.37h-7.56v-5.13h7.46v1H312v3.23h6.42Z"/><path class="cls-2" d="M331.53,68.06h-4.06v1.19h3.76v.9h-3.76v1.26a28.45,28.45,0,0,0,4.91-.29l.12.92a30.52,30.52,0,0,1-5.29.29h-.9V67.12h5.22Zm-4,5.39h7.13V77.2h-7.13Zm6,2.81V74.35H328.7v1.91Zm0-9.77h1.15v6.45h-1.15Z"/><path class="cls-2" d="M343.39,71.12l.07.82c-.92.16-1.9.25-2.86.32v2.11h-1.15V72.32c-1.05,0-2.06,0-2.94,0l-.15-.92A64.44,64.44,0,0,0,343.39,71.12Zm-3.48-4.22c1.59,0,2.69.76,2.69,1.91s-1.1,1.89-2.69,1.89-2.7-.73-2.7-1.89S338.3,66.9,339.91,66.9Zm-2,7H339v2.26h6.71v.93h-7.84Zm2-4c.93,0,1.6-.4,1.6-1s-.67-1.06-1.6-1-1.61.4-1.61,1S339,69.86,339.91,69.86Zm5.53,4.85h-1.15v-1h-2.18v-.81h2.18V66.49h1.15Z"/><path class="cls-2" d="M349.26,72V69.73h1.14V72c1.17,0,2.37-.14,3.46-.29l.07.83a42,42,0,0,1-6.77.45l-.11-.93Zm3.92-4.12a17,17,0,0,1-.28,3.22L351.76,71a14.29,14.29,0,0,0,.28-2.77H347.7V67.3h5.48Zm-4.48,6h1.15v2.28h6.22v.93H348.7Zm5.85-7.42h1.17v3.46h1.49v1h-1.49v3.73h-1.17Z"/><path class="cls-2" d="M358.46,67.46h5.09v4h-3.9v2.37a29.77,29.77,0,0,0,5.11-.39l.11.95a32.61,32.61,0,0,1-5.48.4h-.92V70.5h3.9V68.39h-3.91Zm8.41,9.89h-1.15V66.47h1.15Z"/><rect class="cls-4" x="325.75" y="110.75" width="20" height="20" rx="5.08"/><path class="cls-1" d="M332.38,122.83h1.84c0,.65.67,1.08,1.52,1.09s1.5-.49,1.49-1.2-.63-1.22-1.66-1.22h-.81v-1.35h.81c.87,0,1.47-.47,1.47-1.16a1.15,1.15,0,0,0-1.29-1.13,1.29,1.29,0,0,0-1.44,1.1h-1.75c0-1.5,1.39-2.55,3.19-2.55s3.05,1.08,3,2.47a1.85,1.85,0,0,1-1.66,1.85v.07a2,2,0,0,1,2,2c0,1.5-1.41,2.58-3.39,2.58S332.42,124.36,332.38,122.83Z"/><path class="cls-2" d="M362.24,117.82h2.1v-1.65h1.06v5.12h-4.25v-5.12h1.09Zm2.1,2.54v-1.64h-2.1v1.64Zm-1.77,2.25H370v3.72h-1.14v-2.79h-6.24Zm3.95-6.93h1.07v2.57h1.27v-2.76H370V122h-1.09v-2.81h-1.27v2.74h-1.07Z"/><path class="cls-2" d="M376.46,118.53h1v-2.86h1.08v7.6h-1.08v-3.79h-1a2.41,2.41,0,0,1-2.46,2.15,2.66,2.66,0,1,1,2.47-3.1ZM374,120.65a1.52,1.52,0,0,0,1.47-1.67,1.54,1.54,0,0,0-1.47-1.69,1.51,1.51,0,0,0-1.45,1.69A1.5,1.5,0,0,0,374,120.65Zm-.52,1.89h1.14v2.63H381v.93h-7.51Zm6.11-7.07h1.09v8.12h-1.09Z"/><path class="cls-2" d="M382.13,123.94h9.94v1h-9.94Zm8.8-2.37h-7.56v-5.13h7.46v1h-6.32v3.23h6.42Z"/><rect class="cls-4" x="397.75" y="110.75" width="20" height="20" rx="5.08"/><path class="cls-1" d="M404.38,122.83h1.84c0,.65.67,1.08,1.52,1.09s1.5-.49,1.49-1.2-.63-1.22-1.66-1.22h-.81v-1.35h.81c.87,0,1.47-.47,1.47-1.16a1.15,1.15,0,0,0-1.29-1.13,1.29,1.29,0,0,0-1.44,1.1h-1.75c0-1.5,1.39-2.55,3.19-2.55s3.05,1.08,3,2.47a1.85,1.85,0,0,1-1.66,1.85v.07a2,2,0,0,1,2,2c0,1.5-1.41,2.58-3.39,2.58S404.42,124.36,404.38,122.83Z"/><rect class="cls-1" x="0.75" y="152.75" width="520" height="138" rx="12"/><path d="M508.75,291.5h-496A12.76,12.76,0,0,1,0,278.75v-114A12.76,12.76,0,0,1,12.75,152h496a12.76,12.76,0,0,1,12.75,12.75v114A12.76,12.76,0,0,1,508.75,291.5Zm-496-138A11.27,11.27,0,0,0,1.5,164.75v114A11.27,11.27,0,0,0,12.75,290h496A11.27,11.27,0,0,0,520,278.75v-114a11.27,11.27,0,0,0-11.25-11.25Z"/><rect class="cls-5" x="19.75" y="179.75" width="84" height="84" rx="12"/><path class="cls-6" d="M87,214.45c5.49-8.53,11-17,16.41-25.46a12,12,0,0,0-11.66-9.24h-8L68.22,213.17l-2.75,5.93.71.17c3.27.78,6.53,1.57,9.81,2.33.49.11.58.28.19,1.07Q66.28,242.8,56.42,263l-.39.8h2.29L97.77,217Z"/><polygon class="cls-3" points="19.75 233.88 19.75 250.59 42.54 263.75 55.14 263.75 55.14 213.45 19.75 233.88"/><path class="cls-4" d="M66.94,181.81c0-.69,0-1.38-.08-2.06H31.75a12,12,0,0,0-12,12v12.08a28.73,28.73,0,0,0,47.19-22Z"/><path d="M91.75,264.5h-60A12.76,12.76,0,0,1,19,251.75v-60A12.76,12.76,0,0,1,31.75,179h60a12.76,12.76,0,0,1,12.75,12.75v60A12.76,12.76,0,0,1,91.75,264.5Zm-60-84A11.27,11.27,0,0,0,20.5,191.75v60A11.27,11.27,0,0,0,31.75,263h60A11.27,11.27,0,0,0,103,251.75v-60A11.27,11.27,0,0,0,91.75,180.5Z"/><circle class="cls-1" cx="61.75" cy="209.75" r="13"/><path d="M61.75,223.5A13.75,13.75,0,1,1,75.5,209.75,13.77,13.77,0,0,1,61.75,223.5Zm0-26A12.25,12.25,0,1,0,74,209.75,12.27,12.27,0,0,0,61.75,197.5Z"/><path class="cls-1" d="M58.13,227.75h7.23a22.38,22.38,0,0,1,22.38,22.38v13.62a0,0,0,0,1,0,0h-52a0,0,0,0,1,0,0V250.13A22.38,22.38,0,0,1,58.13,227.75Z"/><path d="M88.5,264.5H35V250.13A23.16,23.16,0,0,1,58.13,227h7.24A23.16,23.16,0,0,1,88.5,250.13Zm-52-1.5H87V250.13A21.66,21.66,0,0,0,65.37,228.5H58.13A21.66,21.66,0,0,0,36.5,250.13Z"/><path d="M117.86,187.65h9V195h-6.27v3.49a49.8,49.8,0,0,0,8.15-.63L129,200a52,52,0,0,1-9.43.67h-1.71v-7.8h6.31V189.8h-6.33Zm15,17.48h-2.66V186.06h2.66Z"/><path d="M144.22,191.85a4.35,4.35,0,0,1-4.41,4.62,4.64,4.64,0,0,1,0-9.26A4.37,4.37,0,0,1,144.22,191.85Zm-4.41,2.41c1.16,0,2-.91,2-2.41s-.83-2.37-2-2.38-2,.88-2,2.38S138.64,194.26,139.81,194.26Zm-1.25,4h13.15v6.82h-2.66V200.4H138.56Zm6.58-11.85h2.47v4.26h1.57v-4.6h2.53v11.36h-2.53v-4.63h-1.57v4.52h-2.47Z"/><path d="M153.87,200.7h17.41v2.17H153.87Zm15.51-2.7H155.92V187.46h13.31v2.16h-10.6v2h10.16v2.09H158.63v2.18h10.75Z"/><path d="M177.3,200.59h6.21v-6.54h2.66v6.54h8.49v2.18H177.3ZM193,189.51a45,45,0,0,1-.77,9.1l-2.68-.28a39.79,39.79,0,0,0,.78-8.5H179.1v-2.12H193Z"/><path d="M195.81,196.41h17.35v2.17h-7.4v6.51h-2.63v-6.51h-7.32Zm16.74-3.6-1,2.16c-3.33-.48-5.76-2-7-4.08a9.51,9.51,0,0,1-7,4.08l-1.06-2.16c4.33-.54,6.61-3,6.63-5.26v-.92h2.8v.92C205.9,189.79,208.2,192.27,212.55,192.81Z"/><path d="M121.53,216.65c-.74,0-1.27.39-1.26.89s.3.67,1,.84l1,.24c1.21.27,1.8.84,1.8,1.78,0,1.19-1,2-2.69,2s-2.51-.7-2.67-1.92h1.32c.11.59.56.89,1.34.88s1.38-.34,1.38-.9-.32-.69-1-.86l-1-.21c-1.19-.26-1.81-.9-1.81-1.81,0-1.17,1-2,2.54-2s2.39.74,2.51,1.88h-1.25A1.13,1.13,0,0,0,121.53,216.65Z"/><path d="M126.06,213.18a.79.79,0,0,1,.81.76.78.78,0,0,1-.81.76.8.8,0,0,1-.83-.76A.81.81,0,0,1,126.06,213.18Zm-.66,2.54h1.3v6.58h-1.3Z"/><path d="M128,219c0-2.15,1.18-3.39,2.77-3.39a2,2,0,0,1,1.9,1.15h.06v-3.26H134v8.77h-1.26v-1h-.09a2,2,0,0,1-1.92,1.16C129.15,222.43,128,221.15,128,219Zm3,2.3c1.11,0,1.72-.94,1.72-2.33s-.6-2.27-1.72-2.26-1.72,1-1.72,2.26S129.89,221.32,131,221.33Z"/><path d="M135.4,219.05c0-2,1.2-3.41,3-3.41,1.49,0,2.92.92,2.92,3.3v.46h-4.68a1.81,1.81,0,0,0,1.85,2,1.52,1.52,0,0,0,1.43-.72h1.31a2.61,2.61,0,0,1-2.75,1.78C136.58,222.43,135.39,221.1,135.4,219.05Zm4.68-.61a1.61,1.61,0,0,0-1.63-1.74,1.76,1.76,0,0,0-1.76,1.74Z"/><path d="M142.75,213.53h5.5v1.15h-4.17v2.65H148v1.14h-3.88v2.68h4.22v1.15h-5.55Z"/><path d="M152.91,216.75H151.5v5.55h-1.3v-5.55h-1v-1h1V215a1.75,1.75,0,0,1,2-1.84,4.91,4.91,0,0,1,.89.08v1.08a3.51,3.51,0,0,0-.55-.05c-.68,0-1,.28-1,.92v.57h1.41Z"/><path d="M157.23,216.75h-1.42v5.55h-1.3v-5.55h-1v-1h1V215a1.75,1.75,0,0,1,2-1.84,4.91,4.91,0,0,1,.89.08v1.08a3.42,3.42,0,0,0-.55-.05c-.68,0-1,.28-1,.92v.57h1.42Z"/><path d="M157.85,219.05c0-2,1.2-3.41,3-3.41,1.5,0,2.92.92,2.92,3.3v.46h-4.68a1.81,1.81,0,0,0,1.86,2,1.55,1.55,0,0,0,1.43-.72h1.3a2.61,2.61,0,0,1-2.75,1.78A3,3,0,0,1,157.85,219.05Zm4.69-.61a1.62,1.62,0,0,0-1.64-1.74,1.77,1.77,0,0,0-1.76,1.74Z"/><path d="M164.8,219c0-2,1.2-3.4,3-3.4a2.52,2.52,0,0,1,2.73,2.21h-1.26a1.42,1.42,0,0,0-1.44-1.14c-1.07,0-1.78.9-1.78,2.29s.69,2.34,1.78,2.33a1.37,1.37,0,0,0,1.44-1.11h1.26a2.51,2.51,0,0,1-2.7,2.21C166,222.43,164.79,221,164.8,219Z"/><path d="M174.88,216.75h-1.34v3.61c0,.75.36.88.78.89.19,0,.47,0,.66,0v1.13a7.55,7.55,0,0,1-.81,0,1.72,1.72,0,0,1-1.92-1.75v-3.88h-1v-1h1v-1.57h1.29v1.57h1.34Z"/><path d="M178.4,218.59c0-1.59.91-2.5,2-2.5a1.44,1.44,0,0,1,1.36.82h.06v-.73h1v3.39c0,.45.2.66.56.66.69,0,1.13-.79,1.14-2a3.53,3.53,0,0,0-3.82-3.64,3.76,3.76,0,0,0-3.83,4c0,2.41,1.31,4,3.78,4a8.11,8.11,0,0,0,2.17-.27v1a8,8,0,0,1-2.17.29c-3,0-4.79-1.91-4.79-5a4.71,4.71,0,0,1,4.84-5,4.54,4.54,0,0,1,4.84,4.59c0,1.86-.95,2.94-2.24,2.93a1.36,1.36,0,0,1-1.47-.95h-.06a1.53,1.53,0,0,1-1.42.9C179.28,221.11,178.41,220.18,178.4,218.59Zm2.32,1.53c.77,0,1.17-.61,1.17-1.54s-.4-1.5-1.17-1.5-1.18.65-1.18,1.5S180,220.11,180.72,220.12Z"/><path d="M189.48,216.65c-.74,0-1.27.39-1.26.89s.3.67,1,.84l1,.24c1.21.27,1.8.84,1.8,1.78,0,1.19-1,2-2.69,2s-2.51-.7-2.67-1.92h1.32c.11.59.56.89,1.34.88s1.38-.34,1.38-.9-.32-.69-1-.86l-1-.21c-1.18-.26-1.8-.9-1.8-1.81,0-1.17,1-2,2.54-2a2.22,2.22,0,0,1,2.51,1.88h-1.25A1.13,1.13,0,0,0,189.48,216.65Z"/><path d="M194,213.18a.79.79,0,0,1,.81.76.78.78,0,0,1-.81.76.8.8,0,0,1-.83-.76A.81.81,0,0,1,194,213.18Zm-.66,2.54h1.3v6.58h-1.3Z"/><path d="M195.93,219c0-2.15,1.18-3.39,2.76-3.39a2,2,0,0,1,1.91,1.15h.06v-3.26H202v8.77h-1.26v-1h-.09a2,2,0,0,1-1.92,1.16C197.1,222.43,195.93,221.15,195.93,219Zm3,2.3c1.11,0,1.72-.94,1.72-2.33s-.6-2.27-1.72-2.26-1.72,1-1.72,2.26S197.84,221.32,199,221.33Z"/><path d="M203.35,219.05c0-2,1.2-3.41,3-3.41,1.49,0,2.92.92,2.92,3.3v.46h-4.68a1.81,1.81,0,0,0,1.85,2,1.52,1.52,0,0,0,1.43-.72h1.31a2.61,2.61,0,0,1-2.75,1.78C204.53,222.43,203.34,221.1,203.35,219.05Zm4.68-.61a1.61,1.61,0,0,0-1.63-1.74,1.76,1.76,0,0,0-1.76,1.74Z"/><path d="M210.3,219.05c0-2,1.2-3.41,3-3.41,1.5,0,2.92.92,2.92,3.3v.46h-4.68a1.81,1.81,0,0,0,1.86,2,1.55,1.55,0,0,0,1.43-.72h1.3a2.61,2.61,0,0,1-2.75,1.78A3,3,0,0,1,210.3,219.05Zm4.69-.61a1.62,1.62,0,0,0-1.64-1.74,1.77,1.77,0,0,0-1.76,1.74Z"/><path d="M220.68,216.75h-1.42v5.55H218v-5.55h-1v-1h1V215a1.74,1.74,0,0,1,2-1.84,4.71,4.71,0,0,1,.88.08v1.08a3.41,3.41,0,0,0-.54-.05c-.69,0-1,.28-1,.92v.57h1.42Z"/><path d="M225,216.75h-1.41v5.55h-1.3v-5.55h-1v-1h1V215a1.75,1.75,0,0,1,2-1.84,4.91,4.91,0,0,1,.89.08v1.08a3.51,3.51,0,0,0-.55-.05c-.68,0-1,.28-1,.92v.57H225Z"/><path d="M225.62,219.05c0-2,1.2-3.41,3-3.41,1.49,0,2.92.92,2.92,3.3v.46H226.9a1.81,1.81,0,0,0,1.85,2,1.53,1.53,0,0,0,1.43-.72h1.31a2.61,2.61,0,0,1-2.75,1.78C226.8,222.43,225.61,221.1,225.62,219.05Zm4.68-.61a1.61,1.61,0,0,0-1.63-1.74,1.76,1.76,0,0,0-1.76,1.74Z"/><path d="M232.57,219c0-2,1.2-3.4,3.05-3.4a2.53,2.53,0,0,1,2.73,2.21h-1.26a1.42,1.42,0,0,0-1.44-1.14c-1.07,0-1.78.9-1.78,2.29s.69,2.34,1.78,2.33a1.38,1.38,0,0,0,1.44-1.11h1.26a2.51,2.51,0,0,1-2.7,2.21C233.73,222.43,232.56,221,232.57,219Z"/><path d="M242.65,216.75H241.3v3.61c0,.75.37.88.79.89.19,0,.47,0,.66,0v1.13a7.61,7.61,0,0,1-.82,0,1.72,1.72,0,0,1-1.91-1.75v-3.88h-1v-1h1v-1.57h1.28v1.57h1.35Z"/><path d="M243.89,221.53a.87.87,0,0,1,.86-.87.88.88,0,0,1,.87.87.87.87,0,0,1-.87.85A.86.86,0,0,1,243.89,221.53Z"/><path d="M246.89,219c0-2,1.2-3.4,3.05-3.4a2.53,2.53,0,0,1,2.73,2.21h-1.26a1.43,1.43,0,0,0-1.45-1.14c-1.06,0-1.78.9-1.78,2.29s.7,2.34,1.78,2.33a1.38,1.38,0,0,0,1.45-1.11h1.26a2.52,2.52,0,0,1-2.71,2.21C248,222.43,246.88,221,246.89,219Z"/><path d="M253.6,219c0-2,1.21-3.4,3.07-3.4s3.07,1.35,3.07,3.4-1.21,3.39-3.07,3.39S253.59,221.08,253.6,219Zm3.07,2.32c1.19,0,1.76-1.07,1.76-2.32s-.57-2.33-1.76-2.34-1.78,1.08-1.78,2.34S255.47,221.36,256.67,221.36Z"/><path d="M261,215.72h1.25v1.08h.07a1.81,1.81,0,0,1,1.79-1.16,1.76,1.76,0,0,1,1.77,1.16H266a2,2,0,0,1,2-1.16,2,2,0,0,1,2,2.25v4.41h-1.3V218a1.14,1.14,0,0,0-1.24-1.26,1.24,1.24,0,0,0-1.3,1.36v4.19h-1.29v-4.36a1.13,1.13,0,0,0-1.2-1.19,1.4,1.4,0,0,0-1.34,1.49v4.06H261Z"/><path d="M128.59,253.53h-4.41v3.79h-1.13v-3.79h-4.36v-.94h9.9ZM123,248h-3.38v-.92h8V248H124.3c0,1.34,1.69,2.54,3.74,2.82l-.42.91a5.4,5.4,0,0,1-4-2.39,5.41,5.41,0,0,1-4,2.39l-.44-.91C121.27,250.58,123,249.38,123,248Z"/><path d="M130.08,247.53h1.14v6a25.23,25.23,0,0,0,5-.49l.16,1a26.5,26.5,0,0,1-5.38.52h-.91Zm8.35,9.8h-1.15V246.47h1.15Z"/><path d="M145.8,250.54H148v-4.07h1.14v10.88H148v-5.87h-2.23c-.12,2.12-1.22,3.43-2.73,3.43s-2.77-1.47-2.75-3.82,1.13-3.8,2.75-3.8C144.55,247.29,145.63,248.54,145.8,250.54Zm-2.72,3.34c1,0,1.65-1.06,1.66-2.79s-.68-2.77-1.66-2.77-1.66,1.07-1.66,2.77S142.09,253.88,143.08,253.88Z"/><path d="M157.45,248.8h-3.14v-.94h4.26a7.58,7.58,0,0,1-4.06,7.17l-.67-.8A6.5,6.5,0,0,0,157.45,248.8Zm5.72,8.53h-1.1V251.7h-1.34v5.11h-1.08v-10h1.08v4h1.34v-4.29h1.1Z"/><path d="M166.15,248.41H169v-1.47h1.14v4.73H165v-4.73h1.12Zm0,4.12h7v2.74h-5.86v1h6.24v.92h-7.37v-2.8H172v-1h-5.87Zm2.88-1.78V249.3h-2.85v1.45Zm3-4.28h1.15v2.28h1.58v.94h-1.58v2.37H172Z"/><path d="M181.88,254.08l-.66.9a5.59,5.59,0,0,1-2.68-3.22,5.91,5.91,0,0,1-2.75,3.5l-.67-.91a5.5,5.5,0,0,0,2.84-4.68v-1.15h-2.44v-1h5.94v1H179.1v1.15A5.13,5.13,0,0,0,181.88,254.08Zm.75-7.61h1.15v4.31h1.74v1h-1.74v5.59h-1.15Z"/><path class="cls-7" d="M287.37,236.75H328l.14.05a4,4,0,0,1,3.48,4.1v21.57a4.07,4.07,0,0,1-4.14,4.14h-39.6a4.08,4.08,0,0,1-4-3c-.05-.2-.09-.41-.14-.62V240.37l.06-.22a4,4,0,0,1,2.26-3A9,9,0,0,1,287.37,236.75Zm18.47,19.19a6.33,6.33,0,0,1-2.45-.78c-1.82-1.09-2.21-4.51-.89-6a.47.47,0,0,0,.11-.37,3.73,3.73,0,0,1,.05-2,.38.38,0,0,1,.48-.32,4.83,4.83,0,0,1,1.95.8.61.61,0,0,0,.54.09,8.21,8.21,0,0,1,3.69-.08,1.51,1.51,0,0,0,1.29-.21,3.38,3.38,0,0,1,1.69-.6.28.28,0,0,1,.33.23,3.2,3.2,0,0,1,.12,1.81.76.76,0,0,0,.17.75,3.9,3.9,0,0,1,.65,2.88,3.7,3.7,0,0,1-2.9,3.51c-.41.11-.84.18-1.28.27a2.42,2.42,0,0,1,.58,1.77c0,.76,0,1.52,0,2.28,0,.5.27.7.76.53a9.08,9.08,0,0,0,5.48-12.37A9.34,9.34,0,0,0,304,243.49a9.09,9.09,0,0,0-1.81,15.84,8.66,8.66,0,0,0,2.4,1.23c.37.12.71,0,.72-.29,0-.55,0-1.1,0-1.65-.29,0-.54.07-.79.08a2.29,2.29,0,0,1-2.41-1.46,2.55,2.55,0,0,0-1-1.26,1.5,1.5,0,0,1-.28-.37l.48-.13a.22.22,0,0,1,.11,0,2,2,0,0,1,1.29,1,1.91,1.91,0,0,0,2.48.77.31.31,0,0,0,.19-.16C305.54,256.72,305.69,256.33,305.84,255.94Z"/><path class="cls-1" d="M305.84,255.94c-.15.39-.3.78-.46,1.15a.31.31,0,0,1-.19.16,1.91,1.91,0,0,1-2.48-.77,2,2,0,0,0-1.29-1,.22.22,0,0,0-.11,0l-.48.13a1.5,1.5,0,0,0,.28.37,2.55,2.55,0,0,1,1,1.26,2.29,2.29,0,0,0,2.41,1.46c.25,0,.5-.05.79-.08,0,.55,0,1.1,0,1.65,0,.29-.35.41-.72.29a8.66,8.66,0,0,1-2.4-1.23A9.09,9.09,0,0,1,304,243.49a9.34,9.34,0,0,1,12.18,4.69,9.08,9.08,0,0,1-5.48,12.37c-.49.17-.76,0-.76-.53,0-.76,0-1.52,0-2.28a2.42,2.42,0,0,0-.58-1.77c.44-.09.87-.16,1.28-.27a3.7,3.7,0,0,0,2.9-3.51,3.9,3.9,0,0,0-.65-2.88.76.76,0,0,1-.17-.75,3.2,3.2,0,0,0-.12-1.81.28.28,0,0,0-.33-.23,3.38,3.38,0,0,0-1.69.6,1.51,1.51,0,0,1-1.29.21,8.21,8.21,0,0,0-3.69.08.61.61,0,0,1-.54-.09,4.83,4.83,0,0,0-1.95-.8.38.38,0,0,0-.48.32,3.73,3.73,0,0,0-.05,2,.47.47,0,0,1-.11.37c-1.32,1.48-.93,4.9.89,6A6.33,6.33,0,0,0,305.84,255.94Z"/><rect class="cls-3" x="339.12" y="236.75" width="48" height="30" rx="5.08"/><path class="cls-1" d="M352.73,252.39h10.06v1.26H358.5v3.76H357v-3.76h-4.24Zm9.71-2.09-.61,1.25a5.49,5.49,0,0,1-4.06-2.36,5.5,5.5,0,0,1-4,2.36l-.62-1.25c2.51-.31,3.83-1.75,3.84-3.05v-.53h1.62v.53C358.58,248.55,359.91,250,362.44,250.3Z"/><path class="cls-1" d="M368.9,250.39h-3.51v1.05a24.74,24.74,0,0,0,4.46-.32l.17,1.23a27.36,27.36,0,0,1-5.23.35h-.94v-3.49h3.55v-1h-3.56V247h5.06Zm-4.13,3.21h7.43v3.8h-1.55v-2.57h-5.88Zm5.88-7.2h1.55V249h1.49v1.27H372.2v2.79h-1.55Z"/><rect class="cls-4" x="394.5" y="236.75" width="48" height="30" rx="5.08"/><path class="cls-1" d="M412.17,248.75h-3.65v-1.21h5.21a8,8,0,0,1-4.93,8l-.8-1.21C410.78,252.91,411.94,251.17,412.17,248.75Zm5.23,8.66h-1.54v-5.52h-2.19v-1.26h2.19v-4.24h1.54Z"/><path class="cls-1" d="M425.13,248.05h-2.2a3.1,3.1,0,0,0,2.52,2.74l-.71,1.22a4.13,4.13,0,0,1-2.58-2,4.3,4.3,0,0,1-2.68,2.23l-.75-1.2a3.49,3.49,0,0,0,2.65-3h-2.23v-1.24h6Zm-4.35,4.37h7.34v3h-5.78v.71h6.11v1.2h-7.66v-3h5.79v-.63h-5.8Zm4.07-3.76h1.73v-2.27h1.54V252h-1.54v-2.12h-1.73Z"/><rect class="cls-3" x="449.87" y="236.75" width="57" height="30" rx="5.08"/><path class="cls-1" d="M472.71,256.13H462.62v-1.28h10.09Zm-9.3-8.77h8.45v1.24h-1.55v3.34h1.5v1.21h-8.35v-1.21h1.47V248.6h-1.52Zm5.38,4.58V248.6h-2.31v3.34Z"/><path class="cls-1" d="M483.43,256.19H473.34v-1.27h4.25v-1.66H474.5v-3.71h6.24v-1.21h-6.25v-1.23h7.78v3.65h-6.22V252h6.47v1.26h-3.39v1.66h4.3Z"/><path class="cls-1" d="M485.43,250.61v-2.37h-.9v-1.17h6v1.17h-.91v2.2c.46,0,.9-.08,1.33-.13l.08,1.11a44.18,44.18,0,0,1-6.62.41l-.17-1.21Zm.39,1.87h7.5v3h-5.95v.69h6.25v1.22h-7.78v-3h6v-.65h-6Zm2.31-1.95v-2.29h-1.22v2.34Zm5.19,1.52h-1.56v-5.66h1.56Z"/><rect class="cls-7" x="265.86" y="93.55" width="279.89" height="1.5"/><path class="cls-7" d="M531.75,366.5h-254A12.76,12.76,0,0,1,265,353.75v-26A12.76,12.76,0,0,1,277.75,315h254a12.76,12.76,0,0,1,12.75,12.75v26A12.76,12.76,0,0,1,531.75,366.5Zm-254-50a11.27,11.27,0,0,0-11.25,11.25v26A11.27,11.27,0,0,0,277.75,365h254A11.27,11.27,0,0,0,543,353.75v-26a11.27,11.27,0,0,0-11.25-11.25Z"/><path class="cls-7" d="M531.75,429.5h-254A12.76,12.76,0,0,1,265,416.75v-26A12.76,12.76,0,0,1,277.75,378h254a12.76,12.76,0,0,1,12.75,12.75v26A12.76,12.76,0,0,1,531.75,429.5Zm-254-50a11.27,11.27,0,0,0-11.25,11.25v26A11.27,11.27,0,0,0,277.75,428h254A11.27,11.27,0,0,0,543,416.75v-26a11.27,11.27,0,0,0-11.25-11.25Z"/></g></g></svg>