<svg xmlns="http://www.w3.org/2000/svg" viewBox="0 0 106.27 47"><defs><style>.cls-1{fill:#bbffa8;}</style></defs><g id="레이어_2" /><g id="레이어_8" /><path d="M64.33,12.88l-2.06.28-.15,0c0-.55,0-1.06.05-1.58L62.56.87c0-.14,0-.22.1-.23L67.43,0h.06L65.87,10.33,68.14,10l-6.7,17.46Z"/><path d="M46.94,37.76l-.34-2.51c-.49-3.52.74-6.29,4.58-6.82s5.78,1.81,6.26,5.33l.34,2.51c.48,3.53-.75,6.3-4.59,6.82S47.42,41.28,46.94,37.76Zm2.43-2.55L49.63,37c.35,2.56,1.3,3.81,3.22,3.54s2.5-1.72,2.15-4.27l-.25-1.83c-.35-2.55-1.3-3.8-3.22-3.54S49,32.66,49.37,35.21Z"/><path d="M74.11,27.08l.76,5.56c.63-.13,1.21-.23,1.72-.37l.51,2.18c-2.26.61-6.67,1.24-10.44,1.75l-.31-2.3,1.58-.22L67.15,28l-1.51.2-.31-2.3,10-1.36.31,2.3Zm-1.85,6-.77-5.63-1.71.24.77,5.64C71.14,33.24,71.72,33.16,72.26,33.07Zm-1.57,4.45L84.8,35.58l1.09,7.91L83,43.88l-.75-5.49L71,39.93Zm10.11-2.4-2.62.36-.66-4.86-1.81.25-.33-2.44,1.81-.25-.66-4.79L79.15,23ZM80.33,22.6,83,22.23l1.7,12.4L82,35Z"/><path d="M105.94,35.33l.33,2.42L87,40.39,86.7,38Zm-2.85-2.53-14.3,2L87.21,23.24l14.07-1.93.33,2.4L90.36,25.25l.3,2.17,11.07-1.52.33,2.4L91,29.81,91.28,32l11.48-1.57Z"/><path d="M12.93,25.44l-1.56,2.18c-1.15-.81-2.28-1.66-3.24-2.4a9.54,9.54,0,0,1-2-1.78h0a9.35,9.35,0,0,1-1.39,2.34c-.72,1-1.47,2-2.59,3.36L0,27.47a46.94,46.94,0,0,0,2.92-3.8A5.78,5.78,0,0,0,4,19L3.35,14.2l2.92-.42L7,18.62a5.26,5.26,0,0,0,2.2,4C10.27,23.56,11.61,24.54,12.93,25.44Zm3.13-7L19,18l.35,2.48-2.89.41L18,32l-2.87.4-3-21L15,11Z"/><path d="M20.24,20.47,19.89,18c-.5-3.53.72-6.3,4.56-6.84s5.78,1.79,6.28,5.31l.35,2.5c.5,3.53-.72,6.3-4.56,6.84S20.74,24,20.24,20.47Zm2.43-2.55.26,1.83c.36,2.55,1.32,3.79,3.24,3.52S28.66,21.54,28.3,19L28,17.16c-.36-2.55-1.31-3.8-3.23-3.53S22.31,15.37,22.67,17.92ZM38.41,29.15l-2.86.4-3-21,2.86-.4Z"/><path d="M58.68,21.13,59,23.55,39.78,26.26l-.34-2.42ZM41.35,19.61,39.9,9.3l14-2,.34,2.42-11.2,1.58.78,5.49,11.47-1.62.34,2.41Z"/><path class="cls-1" d="M61.52,27.62l.09-1.72c.19-3.61.39-7.22.58-10.83,0-.22,0-.25-.12-.23L60,15.12l-.15,0c0-.55,0-1.06,0-1.58L60.3,2.84c0-.14,0-.22.1-.24L65.17,2h.06L63.61,12.29,65.88,12,61.56,27.66Z"/><path d="M63.76,33.86,62,34.11l1.22-8.78h-.05l-3.81.52c-.07,0-.08.07-.08.19L59,35.17c0,.44,0,.88,0,1.34h.12l1.65-.23c.08,0,.11,0,.1.19-.13,3.08-.4,7.46-.53,10.54l2.87-.57"/></svg>