<svg xmlns="http://www.w3.org/2000/svg" viewBox="0 0 193.56 333.23">\
<path fill="current" d="M14.69,18.45c-3.83,0-6,1.76-6,4.18,0,2.64,2.69,3.82,5.83,4.52L17.8,28c6.24,1.43,10.89,4.6,10.92,10.66,0,6.66-5.21,10.94-14.09,10.91S.23,45.49,0,37.67H7.34c.25,3.67,3.17,5.53,7.19,5.53s6.54-1.86,6.54-4.58c0-2.49-2.26-3.65-6.23-4.63l-4-1C4.73,31.53,1,28.46,1,23.13c0-6.61,5.8-11,13.78-11S28.11,16.59,28.21,23H21C20.67,20.14,18.38,18.45,14.69,18.45Z"/>
<path fill="current" d="M50,18.81c-5.66,0-9.41,4.35-9.41,12,0,7.84,3.8,12,9.36,12,4.15,0,7.26-2.28,8-6.23l7.65,0c-.83,6.74-6.49,12.87-15.74,12.87-9.73,0-17-6.86-17-18.7s7.34-18.71,17-18.71c8.4,0,14.73,4.8,15.74,13.17H58C57.38,21.27,54.29,18.83,50,18.81Z"/>
<path fill="current" d="M70.91,12.62H85.19c8.27,0,13,4.65,13,11.87,0,5-2.28,8.6-6.43,10.38L99.52,49H91.17l-7-12.92H78.45V49H70.91ZM83.78,30c4.48,0,6.66-1.84,6.64-5.48s-2.16-5.66-6.64-5.68H78.45V30Z"/>
<path fill="current" d="M119.79,49.53c-9.71,0-17.05-6.86-17.05-18.7s7.34-18.71,17.05-18.71,17,6.81,17,18.71S129.42,49.53,119.79,49.53Zm0-6.69c5.6,0,9.33-4.24,9.3-12s-3.7-12-9.3-12-9.36,4.22-9.36,12S114.13,42.82,119.79,42.84Z"/>
<path fill="current" d="M142.21,12.62h7.55V42.79h15.69V49H142.21Z"/>
<path fill="current" d="M170.33,12.62h7.54V42.79h15.69V49H170.33Z"/>
<path fill="current" d="M99.72,322.17l9.56-9.56,4.12,4L96.76,333.23l-16.6-16.59,4.07-4,9.56,9.56V145.56h5.93Z"/>
<text/>
<rect x="93.78" y="128.56" width="6" height="6"/>
<rect x="93.78" y="111.56" width="6" height="6"/>
</svg>